<?xml version="1.0" standalone="no"?><!DOCTYPE svg PUBLIC "-//W3C//DTD SVG 1.1//EN" "http://www.w3.org/Graphics/SVG/1.1/DTD/svg11.dtd"><svg t="1657379595670" class="icon" viewBox="0 0 1024 1024" version="1.1" xmlns="http://www.w3.org/2000/svg" p-id="6332" width="128" height="128" xmlns:xlink="http://www.w3.org/1999/xlink"><defs><style type="text/css">@font-face { font-family: feedback-iconfont; src: url("//at.alicdn.com/t/font_1031158_u69w8yhxdu.woff2?t=1630033759944") format("woff2"), url("//at.alicdn.com/t/font_1031158_u69w8yhxdu.woff?t=1630033759944") format("woff"), url("//at.alicdn.com/t/font_1031158_u69w8yhxdu.ttf?t=1630033759944") format("truetype"); }
</style></defs><path d="M222.3 544.9c-27.3 0-53.9 4.7-79.4 14l-13.3 4.9 2.9 13.9c14.5 70.7 50 134.6 102.6 184.6 52.8 50.1 118.7 82.4 190.4 93.1l14.1 2.1 4.1-13.6c6.7-21.9 10-44.6 10-67.7 0-61.8-24-119.9-67.8-163.6-43.7-43.7-101.8-67.7-163.6-67.7zM843.8 558.9c-25.4-9.3-52.1-14-79.4-14-61.8 0-119.9 24-163.6 67.8C557 656.4 533 714.4 533 776.3c0 23.1 3.4 45.8 10 67.7l4.1 13.6 14.1-2.1c71.7-10.7 137.6-42.9 190.4-93.1 52.6-50.1 88.1-113.9 102.6-184.6l2.9-13.9-13.3-5z" fill="#83D3FF" p-id="6333"></path><path d="M854.4 510h-88.2c-33.4 0-70.4 4.9-98.3-17.5-35.4-28.4-41-92-14.1-128.1 24.7-33.2 61.1-32.2 97.9-32.2h102.5c-2.6-45.1-40.1-77.9-84.1-79.4-7.7-0.3-15.5 0-23.3 0H252.6c-11.8 0-23.6-0.4-35.4 0-44.3 1.4-82.3 33.8-84.9 79.5h88.1c33.4 0 70.3-4.9 98.3 17.5 35.4 28.4 41 92 14.1 128.1-24.7 33.2-61.1 32.1-97.9 32.1H132.3c0.1 14.7 1.2 29.5 3.2 44.1 87.3-32.1 185.5-14.2 252.8 51.1 65.8 63.9 87.3 158.9 60.5 245.9 29.1 2.4 60 2.4 89.1 0-26.7-87.1-5.4-181.9 60.5-245.9 67.2-65.3 165.6-83.4 252.8-51.1 1.9-14.6 3-29.3 3.2-44.1z" fill="#FFFFFF" p-id="6334"></path><path d="M854.4 346.2H717.6c-36.1 0-65.6 29.4-65.6 65.6v18.7c0 36.1 29.4 65.6 65.6 65.6h136.8V346.2z" fill="#FFFFFF" p-id="6335"></path><path d="M844.9 355.8H717.6c-31 0-56.1 25.1-56.1 56.1v18.7c0 31 25.1 56.1 56.1 56.1h127.3V355.8z m0 0" fill="#FFFFFF" p-id="6336"></path><path d="M269.1 339.3H125.3V503h143.8c40 0 72.6-32.5 72.6-72.5v-18.7c-0.1-40-32.6-72.5-72.6-72.5zM717.6 339.2c-40 0-72.6 32.5-72.6 72.6v18.7c0 40 32.5 72.6 72.6 72.6h143.8V339.2H717.6z" fill="#B6E9FF" p-id="6337"></path><path d="M314.9 486.6h356.8c-16.3-13.3-26.7-33.5-26.7-56.2v-18.7c0-22.5 10.3-42.7 26.5-56H315c16.2 13.3 26.6 33.5 26.6 56.1v18.7c0 22.6-10.4 42.8-26.7 56.1z" fill="#83D3FF" p-id="6338"></path><path d="M337 355.8h-22c16.2 13.3 26.6 33.5 26.6 56.1v18.7c0 22.6-10.4 42.8-26.7 56.1h21.9c18.1-12.3 30.1-33.1 30.1-56.6v-17.7c0-23.5-11.8-44.3-29.9-56.6zM644.4 430.6v-18.7c0-22.6 10.4-42.8 26.6-56.1h-22c-18.1 12.3-30 33.1-30 56.6v17.7c0 23.5 11.9 44.3 30.1 56.6H671c-16.2-13.4-26.6-33.6-26.6-56.1z" fill="#43C5FF" p-id="6339"></path><path d="M868.3 332.2c-2.6-52.3-46.6-92.5-98.3-93.4-11.4-0.2-22.8 0-34.1 0H321.6c-37.1 0-75.1-2.4-112.2 0.3-51.4 3.7-90.2 47.4-91.1 98-0.5 26.1 0 52.3 0 78.4 0 29.8-0.2 59.5 0 89.3 0.2 44 7 85.9 22.6 127.6C184.2 748.8 288.1 836.7 410.2 860c93.8 17.9 198.1 5.9 281.5-43.5 95.6-56.7 161.3-157.6 174.2-267.1 3.5-29.7 2.5-59.8 2.5-89.7V353c0-7 0.3-14.2-0.1-20.8zM717.6 496c-71.6 0-90.5-108.4-32.1-141.4 17.6-9.9 37-8.4 56.4-8.4h75.6c5.8 0 37 0.9 37 0.9v147s-1.1 1.7-5.6 1.9c-43.7 2-87.7 0-131.3 0zM269.1 346.3c71.6 0 90.5 108.4 32.1 141.3-17.6 9.9-37 8.4-56.4 8.4h-75.6c-5.8 0-37-0.9-37-0.9v-18-33.8-74.5-22.3s3.9-0.2 5.6-0.2h131.3z m167.8 495.6c-1.8 6-0.6 6.3-5.9 7.2-5.2 0.9-13.2-2.1-18.2-3-15.2-2.9-30.3-6.8-45-11.8-30.2-10.2-59.1-24.6-85.4-42.7-45.7-31.4-83.8-74-109.8-123-7.8-14.6-14.5-29.8-20.1-45.4-3.2-9-6.1-18.1-8.5-27.3-1.3-4.9-8.4-24.8-5.4-28.1 1.3-1.4 9.5-3.5 11.1-4 8.7-3 17.6-5.4 26.7-7.3 17.8-3.7 36-5.2 54.1-4.6 63.4 2.3 123.5 31.9 164.2 80.6 48.2 57.7 64.1 137.6 42.2 209.4z m112.8 0c-40.4-132.6 52.4-274 190.4-288.8 34.7-3.7 69.3 0.9 102.1 12.6 6.5 2.3 7 1.6 5.6 8.7-1 5.1-2.2 10.2-3.4 15.3-3.7 14.8-8.3 29.2-13.8 43.4-21.2 53.3-55.4 100.9-99.2 137.9-28.9 24.4-61.9 44-97.1 57.8-15.8 6.1-32 11.2-48.5 14.9-9 2-18.1 3.7-27.3 5.1-7.9 1.1-6.7 0.1-8.8-6.9z m301.4-287.8c-66.6-24.5-140.5-21-202.9 13.9C587 602.2 542.8 663.3 530 732.3c-7.4 39.9-4 80.2 7.9 118.8-29.1 2.4-60 2.4-89.1 0 20.7-67.6 13.6-140.8-24.2-201.2-37.4-59.5-100.5-100.6-170.2-109.9-40.4-5.4-80.7 0-118.9 14.1-2-14.6-3.1-29.3-3.2-44.1h88.1c33.6 0 70.7 4.9 98.7-17.8 35.2-28.5 40.6-91.9 13.7-127.9-24.9-33.4-61.6-32.1-98.5-32.1h-102c2.5-44.7 40.1-78.6 84.2-79.5 8-0.2 16 0 24 0h494c11.6 0 23.2-0.2 34.8 0 44.3 0.7 82.3 34.3 84.8 79.4H766c-33.6 0-70.7-4.9-98.7 17.8-35.2 28.6-40.6 91.9-13.7 127.9 24.9 33.4 61.6 32.1 98.5 32.1h102c0.1 14.9-1 29.6-3 44.2z" fill="#2C96FF" p-id="6340"></path></svg>