<?xml version="1.0" standalone="no"?><!DOCTYPE svg PUBLIC "-//W3C//DTD SVG 1.1//EN" "http://www.w3.org/Graphics/SVG/1.1/DTD/svg11.dtd"><svg t="1657381165209" class="icon" viewBox="0 0 1024 1024" version="1.1" xmlns="http://www.w3.org/2000/svg" p-id="31141" xmlns:xlink="http://www.w3.org/1999/xlink" width="128" height="128"><defs><style type="text/css">@font-face { font-family: feedback-iconfont; src: url("//at.alicdn.com/t/font_1031158_u69w8yhxdu.woff2?t=1630033759944") format("woff2"), url("//at.alicdn.com/t/font_1031158_u69w8yhxdu.woff?t=1630033759944") format("woff"), url("//at.alicdn.com/t/font_1031158_u69w8yhxdu.ttf?t=1630033759944") format("truetype"); }
</style></defs><path d="M348.2 439.3c-61.1 0-82.3 40.2-94 90.6l-16.5 71.4h463.2l-16.5-71.4c-11.7-44.5-30-90.6-94-90.6H348.2z" fill="#FFFFFF" p-id="31142"></path><path d="M276.6 914.9h385c50 0 90.6-40.6 90.6-90.6l-52.3-226.5H238.3L186 824.3c0.1 50 40.6 90.6 90.6 90.6z" fill="#FCD9ED" p-id="31143"></path><path d="M816.5 361.7c-10.8 0-21.5-2.9-31-8.3l-57.5-36c-3.2-2-6.9-3-10.6-3H492.8c-34.6 0-62.7-28.1-62.7-62.7s28.1-62.7 62.7-62.7h236.4c1.3 0 2.7 0.1 4.5 0.2h1.4c0.5 0 1 0 1.5-0.1 1.5-0.1 3.1-0.2 4.6-0.2 10.8 0 21.5 2.9 31 8.2l75.2 47.1c0.2 0.1 0.4 0.2 0.6 0.4 30 17.3 40.3 55.7 23 85.7-11.3 19.4-32.1 31.4-54.5 31.4z" fill="#FFFFFF" p-id="31144"></path><path d="M729.1 208.9c0.8 0 1.8 0 3.1 0.1 0.9 0.1 1.9 0.1 2.8 0.1 1 0 2 0 2.9-0.1 1-0.1 2.1-0.1 3.2-0.1 7.3 0 14.3 1.8 20.8 5.4l74.9 46.8c0.4 0.3 0.8 0.5 1.2 0.7 20.4 11.8 27.4 38 15.6 58.4-7.6 13.2-21.8 21.4-37.1 21.4-7.2 0-14.4-1.9-20.8-5.4l-57.2-35.8c-6.4-4-13.7-6.1-21.2-6.1H492.8c-23.6 0-42.7-19.2-42.7-42.7 0-23.6 19.2-42.7 42.7-42.7h236.3m0-40H492.8c-45.7 0-82.7 37-82.7 82.7s37 82.7 82.7 82.7h224.6l57.9 36.2c13 7.5 27.3 11.1 41.3 11.1 28.6 0 56.4-14.8 71.7-41.4 22.8-39.6 9.3-90.2-30.3-113L782.4 180c-13-7.5-27.2-11.1-41.3-11.1-2 0-4.1 0.1-6.1 0.2-1.9-0.1-3.9-0.2-5.9-0.2zM595.6 468.9c23 0 32.5 7.7 38.7 15.2 10 12.2 16 31.5 20.6 48.9l69.6 301.6c-2 28.2-25.7 50.6-54.4 50.6H268.2c-28.8 0-52.4-22.4-54.4-50.6l69.7-302.2c5.6-24.1 12.2-39.9 20.8-49.6 5.7-6.5 15.3-14 38.4-14h252.9m0-39.9H342.7c-63.8 0-85.9 41.9-98.1 94.6l-70.9 307.3c0 52.2 42.3 94.6 94.6 94.6h401.8c52.2 0 94.6-42.3 94.6-94.6l-70.9-307.3c-12.3-46.5-31.4-94.6-98.2-94.6z" fill="#FF9DCA" p-id="31145"></path><path d="M311.8 385.3V192.5c0-41.1 33.4-74.6 74.6-74.6h165.5c41.1 0 74.6 33.4 74.6 74.6v192.7H311.8z" fill="#FFFFFF" p-id="31146"></path><path d="M551.9 138c30.1 0 54.6 24.5 54.6 54.6v172.7H331.8V192.5c0-30.1 24.5-54.6 54.6-54.6h165.5m0-39.9H386.4c-52.2 0-94.6 42.3-94.6 94.6v212.7h354.6V192.5c0-52.2-42.3-94.5-94.5-94.5z" fill="#FF9DCA" p-id="31147"></path></svg>