<?xml version="1.0" standalone="no"?><!DOCTYPE svg PUBLIC "-//W3C//DTD SVG 1.1//EN" "http://www.w3.org/Graphics/SVG/1.1/DTD/svg11.dtd"><svg t="1658125923932" class="icon" viewBox="0 0 1025 1024" version="1.1" xmlns="http://www.w3.org/2000/svg" p-id="2482" xmlns:xlink="http://www.w3.org/1999/xlink" width="16.015625" height="16"><defs><style type="text/css">@font-face { font-family: feedback-iconfont; src: url("//at.alicdn.com/t/font_1031158_u69w8yhxdu.woff2?t=1630033759944") format("woff2"), url("//at.alicdn.com/t/font_1031158_u69w8yhxdu.woff?t=1630033759944") format("woff"), url("//at.alicdn.com/t/font_1031158_u69w8yhxdu.ttf?t=1630033759944") format("truetype"); }
</style></defs><path d="M1021.824 255.872c-18.816-112.64-108.16-204.544-220.288-225.92-95.744-18.304-184.704 12.544-246.656 71.552-17.664 16.768-46.464 15.104-62.592-3.2-60.416-68.224-153.6-106.88-255.104-90.496C123.52 26.24 30.592 116.736 9.472 230.016c-15.488 82.816 3.84 154.88 47.488 220.416l0.768 1.536 2.304 2.688c6.656 12.928 20.608 31.616 30.336 40.96l395.008 428.16c17.152 19.072 47.104 19.328 64.64 0.512l391.808-420.992c5.12-4.992 9.984-10.368 14.72-15.744l4.352-4.608c0-0.128 0.128-0.256 0.128-0.256 49.664-59.648 75.136-140.288 60.8-226.816zM814.08 453.376L632.704 455.68l-34.304 137.216c-1.536 5.888-6.4 10.368-12.544 11.136-0.64 0.128-1.28 0.128-1.792 0.128-5.376 0-10.496-2.944-13.056-7.808L412.8 302.208l-44.288 155.136c-1.792 6.4-7.68 10.752-14.208 10.752H193.664c-8.192 0-14.848-6.656-14.848-14.848 0-8.192 6.656-14.848 14.848-14.848H343.04l51.328-179.584c1.664-5.76 6.656-9.984 12.672-10.624 6.016-0.768 11.776 2.432 14.592 7.68l157.312 292.48 27.776-111.104c1.664-6.528 7.424-11.136 14.208-11.264l192.768-2.432c7.808-0.768 14.848 6.4 14.976 14.592 0.128 8.448-6.4 15.104-14.592 15.232z" fill="#2BAA5D" p-id="2483"></path></svg>