<?xml version="1.0" standalone="no"?><!DOCTYPE svg PUBLIC "-//W3C//DTD SVG 1.1//EN" "http://www.w3.org/Graphics/SVG/1.1/DTD/svg11.dtd"><svg t="1658126205461" class="icon" viewBox="0 0 1024 1024" version="1.1" xmlns="http://www.w3.org/2000/svg" p-id="3355" xmlns:xlink="http://www.w3.org/1999/xlink" width="16" height="16"><defs><style type="text/css">@font-face { font-family: feedback-iconfont; src: url("//at.alicdn.com/t/font_1031158_u69w8yhxdu.woff2?t=1630033759944") format("woff2"), url("//at.alicdn.com/t/font_1031158_u69w8yhxdu.woff?t=1630033759944") format("woff"), url("//at.alicdn.com/t/font_1031158_u69w8yhxdu.ttf?t=1630033759944") format("truetype"); }
</style></defs><path d="M0 0h1024v1024H0V0z" fill="#202425" opacity=".01" p-id="3356"></path><path d="M409.6 34.133333a34.133333 34.133333 0 1 0 0 68.266667h68.266667v68.266667a34.133333 34.133333 0 1 0 68.266666 0V102.4h68.266667a34.133333 34.133333 0 1 0 0-68.266667h-204.8z m136.533333 819.2a34.133333 34.133333 0 1 0-68.266666 0v68.266667h-68.266667a34.133333 34.133333 0 1 0 0 68.266667h204.8a34.133333 34.133333 0 1 0 0-68.266667h-68.266667v-68.266667z m231.355734-751.616a34.133333 34.133333 0 0 0-48.264534 48.2304l48.264534 48.298667-38.263467 38.229333a34.133333 34.133333 0 0 0 48.264533 48.298667l38.263467-38.263467 48.298667 48.264534a34.133333 34.133333 0 1 0 48.264533-48.264534L849.885867 174.08l-72.362667-72.362667zM284.7744 787.456a34.133333 34.133333 0 0 0-48.264533-48.264533l-38.263467 38.263466-48.298667-48.264533a34.133333 34.133333 0 0 0-48.264533 48.264533L174.08 849.92l72.430933 72.362667a34.133333 34.133333 0 0 0 48.264534-48.2304l-48.264534-48.298667 38.263467-38.229333zM955.733333 375.466667a34.133333 34.133333 0 0 1 34.133334 34.133333v204.8a34.133333 34.133333 0 1 1-68.266667 0v-68.266667h-68.266667a34.133333 34.133333 0 1 1 0-68.266666h68.266667v-68.266667a34.133333 34.133333 0 0 1 34.133333-34.133333zM204.8 512a34.133333 34.133333 0 0 1-34.133333 34.133333H102.4v68.266667a34.133333 34.133333 0 1 1-68.266667 0v-204.8a34.133333 34.133333 0 1 1 68.266667 0v68.266667h68.266667a34.133333 34.133333 0 0 1 34.133333 34.133333z m717.482667 265.489067a34.133333 34.133333 0 1 0-48.2304-48.264534l-48.298667 48.264534-38.229333-38.263467a34.133333 34.133333 0 0 0-48.298667 48.264533l38.263467 38.263467-48.264534 48.298667a34.133333 34.133333 0 1 0 48.264534 48.264533l72.430933-72.430933 72.362667-72.362667zM236.544 284.7744A34.133333 34.133333 0 1 0 284.7744 236.544L246.510933 198.2464l48.264534-48.298667A34.133333 34.133333 0 1 0 246.510933 101.717333L174.08 174.08 101.6832 246.510933a34.133333 34.133333 0 1 0 48.264533 48.264534l48.298667-48.264534 38.229333 38.263467z" fill="#FFAA44" p-id="3357"></path><path d="M853.333333 512c0 188.5184-152.814933 341.333333-341.333333 341.333333S170.666667 700.5184 170.666667 512 323.4816 170.666667 512 170.666667s341.333333 152.814933 341.333333 341.333333z" fill="#11AA66" p-id="3358"></path><path d="M716.8 409.6a102.4 102.4 0 1 1-204.8 0 102.4 102.4 0 0 1 204.8 0zM477.866667 614.4a68.266667 68.266667 0 1 1-136.533334 0 68.266667 68.266667 0 0 1 136.533334 0z" fill="#FFFFFF" p-id="3359"></path></svg>