<?xml version="1.0" standalone="no"?><!DOCTYPE svg PUBLIC "-//W3C//DTD SVG 1.1//EN" "http://www.w3.org/Graphics/SVG/1.1/DTD/svg11.dtd"><svg t="1658126333221" class="icon" viewBox="0 0 1024 1024" version="1.1" xmlns="http://www.w3.org/2000/svg" p-id="4472" xmlns:xlink="http://www.w3.org/1999/xlink" width="16" height="16"><defs><style type="text/css">@font-face { font-family: feedback-iconfont; src: url("//at.alicdn.com/t/font_1031158_u69w8yhxdu.woff2?t=1630033759944") format("woff2"), url("//at.alicdn.com/t/font_1031158_u69w8yhxdu.woff?t=1630033759944") format("woff"), url("//at.alicdn.com/t/font_1031158_u69w8yhxdu.ttf?t=1630033759944") format("truetype"); }
</style></defs><path d="M439.6032 81.2032l-358.4 358.4a102.365867 102.365867 0 0 0 0 144.810667l358.4 358.4a102.365867 102.365867 0 0 0 144.7936-0.017067l358.4-358.4a102.4 102.4 0 0 0 0-144.7936l-358.4-358.4a102.365867 102.365867 0 0 0-144.7936 0z m96.512 48.247467l358.434133 358.417066a34.133333 34.133333 0 0 1 0 48.264534l-358.417066 358.4c-13.312 13.312-34.935467 13.312-48.2304 0l-358.434134-358.4a34.0992 34.0992 0 0 1 0-48.247467L487.8848 129.450667c13.312-13.312 34.935467-13.312 48.2304 0z" fill="#2BAA5D" p-id="4473"></path><path d="M546.133333 341.333333v136.533334h136.533334v68.266666h-136.533334v136.533334h-68.266666v-136.533334h-136.533334v-68.266666h136.533334v-136.533334h68.266666z" fill="#2BAA5D" p-id="4474"></path></svg>