<?xml version="1.0" standalone="no"?><!DOCTYPE svg PUBLIC "-//W3C//DTD SVG 1.1//EN" "http://www.w3.org/Graphics/SVG/1.1/DTD/svg11.dtd"><svg t="1658126299294" class="icon" viewBox="0 0 1024 1024" version="1.1" xmlns="http://www.w3.org/2000/svg" p-id="3543" xmlns:xlink="http://www.w3.org/1999/xlink" width="16" height="16"><defs><style type="text/css">@font-face { font-family: feedback-iconfont; src: url("//at.alicdn.com/t/font_1031158_u69w8yhxdu.woff2?t=1630033759944") format("woff2"), url("//at.alicdn.com/t/font_1031158_u69w8yhxdu.woff?t=1630033759944") format("woff"), url("//at.alicdn.com/t/font_1031158_u69w8yhxdu.ttf?t=1630033759944") format("truetype"); }
</style></defs><path d="M587.3 940H446.5c-71.8 0-130.2-58.4-130.2-130.2v-35.3C221.5 762.7 148 681.8 148 583.9V451.7c0-50.2 10-99.1 29.6-145.2 19-44.5 46.1-84.5 80.6-118.7 34.1-33.9 73.7-60.5 117.7-79 45.6-19.2 94-28.8 143.6-28.5 49.6 0.3 97.6 10.3 142.8 29.7 43.7 18.7 82.9 45.4 116.5 79.2 33.7 33.9 60.1 73.2 78.5 117.1 19.1 45.4 28.8 93.5 28.8 143.2V584c0 51.6-20.2 100.1-56.9 136.4-30.7 30.4-69.6 49.1-111.8 54.2v35.2c0.2 71.8-58.3 130.2-130.1 130.2z m-70.2-809.6c-84 0-163.3 33-223.7 92.9-61.5 61.2-95.4 142.3-95.4 228.4v132.2c0 78.3 63.7 142 142 142h26.2v83.8c0 44.2 36 80.2 80.2 80.2h140.9c44.2 0 80.2-36 80.2-80.2v-84.1l25.2 0.2h1.4c37.7 0 73.1-14.6 99.9-41.1 27.1-26.9 42.1-62.7 42.1-100.9V449.5c0-174.8-142.2-318-317-319.1h-2z" fill="#74DBD1" p-id="3544"></path><path d="M676.8 619.1c-28.6 0-58-9.7-82.8-29.4-55-43.8-66.7-120.9-26.2-171.8 19.9-25 49.2-40 82.5-42.1 32.3-2.1 64.6 8.3 90.9 29.2 55 43.8 66.7 120.9 26.2 171.9-22.3 27.8-55.8 42.2-90.6 42.2z m-18.4-193.7c-1.6 0-3.3 0.1-4.9 0.2-19 1.2-35.5 9.5-46.6 23.4-23.4 29.4-15.2 74.9 18.2 101.6 33.4 26.6 79.7 24.4 103.1-5 23.4-29.4 15.2-74.9-18.2-101.6-15.2-12.1-33.3-18.6-51.6-18.6zM360.2 619.9c-2.7 0-5.5-0.1-8.2-0.3-33.4-2.2-62.9-17.2-83-42.4s-28.2-57.3-22.8-90.3c5.2-32.2 22.7-61.5 49.1-82.6 55.4-44.1 133.6-38.3 174.5 13 20.1 25.2 28.2 57.3 22.8 90.3-5.2 32.2-22.7 61.5-49.1 82.6-24.2 19.3-53.5 29.7-83.3 29.7z m18.6-195.3c-17.8 0-36.4 6.2-52.2 18.8-16.7 13.3-27.7 31.6-30.9 51.5-3.1 19 1.4 37.2 12.6 51.2s27.9 22.4 47.1 23.7c20.1 1.3 40.4-5.3 57.1-18.6 16.7-13.3 27.7-31.6 30.9-51.5 3.1-19-1.4-37.2-12.6-51.2-12.7-15.8-31.8-23.9-52-23.9zM461.4 931.6c-13.8 0-25-11.2-25-25v-77.1c0-13.8 11.2-25 25-25s25 11.2 25 25v77.1c0 13.9-11.2 25-25 25zM575.3 931.6c-13.8 0-25-11.2-25-25v-77.1c0-13.8 11.2-25 25-25s25 11.2 25 25v77.1c0 13.9-11.2 25-25 25zM536 717.5h-0.2l-37.7-0.2c-13.4-0.1-25.8-7.4-32.4-19s-6.5-26 0.2-37.5l19.1-32.5c6.7-11.5 19.1-18.6 32.4-18.6h0.2c13.4 0.1 25.8 7.4 32.4 19l18.6 32.8c6.6 11.6 6.5 26-0.2 37.5-6.7 11.4-19.1 18.5-32.4 18.5z m0.1-50z" fill="#74DBD1" p-id="3545"></path></svg>