<?xml version="1.0" standalone="no"?><!DOCTYPE svg PUBLIC "-//W3C//DTD SVG 1.1//EN" "http://www.w3.org/Graphics/SVG/1.1/DTD/svg11.dtd"><svg t="1657381116147" class="icon" viewBox="0 0 1024 1024" version="1.1" xmlns="http://www.w3.org/2000/svg" p-id="30671" xmlns:xlink="http://www.w3.org/1999/xlink" width="128" height="128"><defs><style type="text/css">@font-face { font-family: feedback-iconfont; src: url("//at.alicdn.com/t/font_1031158_u69w8yhxdu.woff2?t=1630033759944") format("woff2"), url("//at.alicdn.com/t/font_1031158_u69w8yhxdu.woff?t=1630033759944") format("woff"), url("//at.alicdn.com/t/font_1031158_u69w8yhxdu.ttf?t=1630033759944") format("truetype"); }
</style></defs><path d="M694.694949 806.007127c-1.76418-1.665942-4.604878-1.665942-6.369058 0-2.351558 2.25332-56.537667 53.990658-56.537667 84.365456 0 31.355125 26.750247 56.734142 59.673077 56.734143s59.673078-25.377994 59.673078-56.734143c0.098237-30.474059-54.087872-82.210373-56.43943-84.365456z m-1.959632 97.397261c-12.0525 0-21.850657-9.309016-21.850657-20.773116 0-8.91709 14.697747-25.28078 21.850657-32.43369 7.15291 7.054673 21.850657 23.418362 21.850658 32.43369 0 11.465123-9.79918 20.773116-21.850658 20.773116zM512.538259 806.007127c-1.76418-1.665942-4.604878-1.665942-6.369058 0-2.351558 2.25332-56.537667 53.990658-56.537667 84.365456 0 31.355125 26.750247 56.734142 59.673077 56.734143s59.673078-25.377994 59.673078-56.734143c0.099261-30.474059-54.086849-82.210373-56.43943-84.365456z m-1.959631 97.397261c-12.0525 0-21.850657-9.309016-21.850658-20.773116 0-8.91709 14.697747-25.28078 21.850658-32.43369 7.15291 7.054673 21.850657 23.418362 21.850657 32.43369 0.001023 11.465123-9.798157 20.773116-21.850657 20.773116zM514.400676 598.178755c-2.156106-2.057869-5.585205-2.057869-7.643074 0-2.841721 2.645247-68.296479 65.258283-68.296479 101.904924 0 37.82242 32.335453 68.590168 72.117505 68.590168s72.117504-30.66951 72.117504-68.590168c0.001023-36.646642-65.453734-99.259678-68.295456-101.904924z m-3.822048 124.735909c-17.735943 0-32.138978-13.620206-32.138978-30.474059 0-13.228279 21.556968-37.235043 32.138978-47.620577 10.582009 10.484795 32.138978 34.393321 32.138977 47.620577 0.001023 16.658402-14.403035 30.474059-32.138977 30.474059zM335.772346 803.654546c-1.76418-1.665942-4.604878-1.665942-6.369057 0-2.351558 2.25332-56.537667 53.990658-56.537668 84.365456 0 31.355125 26.750247 56.734142 59.673078 56.734143s59.673078-25.377994 59.673077-56.734143c0.098237-30.374798-54.087872-82.20935-56.43943-84.365456z m-2.548032 103.473653c-14.110369 0-25.76992-10.973936-25.76992-24.496927 0-10.582009 17.245779-29.78742 25.76992-38.116109 8.426927 8.328689 25.76992 27.632337 25.76992 38.116109 0.001023 13.521968-11.464099 24.496927-25.76992 24.496927z" fill="#CA6867" p-id="30672"></path><path d="M903.110699 767.399831L614.542444 478.831576h0.196475V76.893274h-50.266847v0.783853L411.31895 194.182584h-0.980328v284.061614l-289.155632 289.155633h-0.490164v75.743078l50.16861-0.293689h96.222505c2.057869-17.833157 9.994632-34.785248 22.63451-50.168609h-118.857015v-4.017501L433.855222 525.669324h156.385747l263.092023 262.993786v4.017501H734.280526c12.639878 15.383362 20.576641 32.335453 22.63451 50.168609h96.222505l50.168609 0.293689v-75.743078h-0.195451zM564.569286 475.499691H460.606493V219.658815l103.962793-79.172177v335.013053z" fill="#CA6867" p-id="30673"></path></svg>