<?xml version="1.0" standalone="no"?><!DOCTYPE svg PUBLIC "-//W3C//DTD SVG 1.1//EN" "http://www.w3.org/Graphics/SVG/1.1/DTD/svg11.dtd"><svg t="1657381839590" class="icon" viewBox="0 0 1024 1024" version="1.1" xmlns="http://www.w3.org/2000/svg" p-id="44258" width="16" height="16" xmlns:xlink="http://www.w3.org/1999/xlink"><defs><style type="text/css">@font-face { font-family: feedback-iconfont; src: url("//at.alicdn.com/t/font_1031158_u69w8yhxdu.woff2?t=1630033759944") format("woff2"), url("//at.alicdn.com/t/font_1031158_u69w8yhxdu.woff?t=1630033759944") format("woff"), url("//at.alicdn.com/t/font_1031158_u69w8yhxdu.ttf?t=1630033759944") format("truetype"); }
</style></defs><path d="M890.100722 1024h-756.201444A134.032671 134.032671 0 0 1 0 890.1274c11.098247-239.746138 23.637131-509.425527 23.637131-775.756767a114.370633 114.370633 0 0 1 228.741266 0v74.926504h519.269885V114.370633a114.370633 114.370633 0 0 1 228.741265 0c0 128.61694 6.002657 259.581586 11.791887 386.224318 5.815908 127.456426 11.845244 259.274783 11.845244 389.505771a134.032671 134.032671 0 0 1-133.925956 133.899278zM138.034442 78.728187A35.642446 35.642446 0 0 0 102.445353 114.317276c0 268.118698-12.592241 538.81187-23.690488 777.584243 0 28.55931 24.770966 53.276919 55.184431 53.276919h756.161426a55.171091 55.171091 0 0 0 55.131073-55.104395c0-128.456869-5.975979-259.354819-11.765208-385.917515-5.842587-127.536461-11.871922-259.434854-11.871923-389.839252a35.602428 35.602428 0 0 0-71.204856 0v153.748065H173.623531V114.370633a35.642446 35.642446 0 0 0-35.589089-35.642446z" fill="#CA6867" p-id="44259"></path><path d="M275.682047 393.89438l472.609228 0 0 141.742751-472.609228 0 0-141.742751Z" fill="#CA6867" p-id="44260"></path><path d="M677.433239 574.947868h-330.813121a110.255478 110.255478 0 0 1 0-220.510956h330.813121a110.255478 110.255478 0 1 1 0 220.510956z m-330.813121-141.742751a31.487273 31.487273 0 0 0 0 62.974546h330.813121a31.487273 31.487273 0 1 0 0-62.974546z" fill="#CA6867" p-id="44261"></path></svg>