<?xml version="1.0" standalone="no"?><!DOCTYPE svg PUBLIC "-//W3C//DTD SVG 1.1//EN" "http://www.w3.org/Graphics/SVG/1.1/DTD/svg11.dtd"><svg t="1657381758500" class="icon" viewBox="0 0 1024 1024" version="1.1" xmlns="http://www.w3.org/2000/svg" p-id="43395" xmlns:xlink="http://www.w3.org/1999/xlink" width="32" height="32"><defs><style type="text/css">@font-face { font-family: feedback-iconfont; src: url("//at.alicdn.com/t/font_1031158_u69w8yhxdu.woff2?t=1630033759944") format("woff2"), url("//at.alicdn.com/t/font_1031158_u69w8yhxdu.woff?t=1630033759944") format("woff"), url("//at.alicdn.com/t/font_1031158_u69w8yhxdu.ttf?t=1630033759944") format("truetype"); }
</style></defs><path d="M638.8 204.5l185.1 129.6 48.3-58.1c6.7-8.1 4-18.4-5-21.6-74.8-26.6-117.7-56.6-168.3-117.8-6.1-7.4-16.7-6.5-22.1 2.9l-38 65z m-253.6-3.4L200.1 330.7l-48.3-58.1c-6.7-8.1-4-18.4 5-21.6 74.8-26.6 117.7-56.6 168.3-117.8 6.1-7.4 16.7-6.5 22.1 2.9l38 65zM660.2 839.8l46.2-32.4 19.8 28.2 5.1-3.5 14.4 20.5-56.5 39.6-14.4-20.6 5.2-3.6-19.8-28.2z m-93.5-293.1c-2.1-12.3-3.2-25.7-4.3-38.9-2-25-4-49.2-12.7-69.1l-15.5 22.1c-6.1 8.7-8.2 40.8-9.1 51.7l-0.1 0.7c1.4 17.1 2.9 34.5 6.7 50.9 11.4-6.4 23.3-12 35-17.4z m-39 147.7l32.7 46.7c5.7 8.1 16.5 10.4 24.8 5.5 4.8-2.8 9.8-6.7 14.3-9.9l54 77.1 30.7-21.5-54-77.1 12.9-9c-0.1-0.1 0.4-0.4 0.6-0.5 8-6.1 9.8-17.5 4-25.8l-39.2-56-0.9 0.4c-14.6 6.7-44.7 19.7-54.1 33l-25.8 37.1z m-128-472.7l-30.8 21.6 102.6 146.5L348 476.2 245.5 329.7l-30.8 21.6 142.5 203.5c11.4 16.3 29.9 27.5 50.5 37.6l17.5-25c1.3-1.8 2.4-4 3.4-6.5-17.7-8.5-33.2-17.1-40.6-27.7l-25.6-36.6 87-60.9c3.2-8.9 7.4-17.4 12.9-25.3l34.8-49.7-97.4-139z" fill="#CA6867" p-id="43396"></path><path d="M363.8 843.2l-46.2-32.4-19.8 28.2-5.1-3.5-14.4 20.5 56.5 39.6 14.4-20.6-5.2-3.6 19.8-28.2z m122.9-197.4l-25.7-18 14.4-20.6c18.1-25.9 20.9-60 23.6-93 2.1-25.8 4.2-50.7 13.5-64l25.6-36.6L661.6 500 636 536.6c-9.4 13.5-32.1 23.9-55.5 34.6-30.1 13.8-61.3 28.2-79.4 53.9l-14.4 20.7z m137.6-420.7l30.8 21.6-102.5 146.4L676 479.5 778.6 333l30.8 21.6-142.5 203.6c-15.1 21.6-42.4 34.1-70.7 47.1-25.4 11.7-51.8 23.8-64.1 41.4l-68.4 97.7c-6 8.5-17.7 10.6-26.2 4.6v0.1l-2.5-1.8-10.4-7.3-54 77.1-30.7-21.5 54-77.1-10.3-7.2-2.5-1.8v-0.1c-8.5-6-10.6-17.7-4.6-26.2l68.4-97.7c12.3-17.5 14.6-46.5 16.9-74.5 2.5-31 5-60.8 20.2-82.5l142.3-203.4z" fill="#CA6867" p-id="43397"></path></svg>