<?xml version="1.0" standalone="no"?><!DOCTYPE svg PUBLIC "-//W3C//DTD SVG 1.1//EN" "http://www.w3.org/Graphics/SVG/1.1/DTD/svg11.dtd"><svg t="1657381455013" class="icon" viewBox="0 0 1024 1024" version="1.1" xmlns="http://www.w3.org/2000/svg" p-id="42415" xmlns:xlink="http://www.w3.org/1999/xlink" width="128" height="128"><defs><style type="text/css">@font-face { font-family: feedback-iconfont; src: url("//at.alicdn.com/t/font_1031158_u69w8yhxdu.woff2?t=1630033759944") format("woff2"), url("//at.alicdn.com/t/font_1031158_u69w8yhxdu.woff?t=1630033759944") format("woff"), url("//at.alicdn.com/t/font_1031158_u69w8yhxdu.ttf?t=1630033759944") format("truetype"); }
</style></defs><path d="M634 173.2c0 45.31-63.5 593.07-82.35 749.65a0.64 0.64 0 0 1-1.27 0C532.46 768.05 468 218.5 468 173.2a83 83 0 1 1 166 0z" fill="#00E7FF" p-id="42416"></path><path d="M514 177.2m-55 0a55 55 0 1 0 110 0 55 55 0 1 0-110 0Z" fill="#FFFFFF" p-id="42417"></path><path d="M515 938.41a15.64 15.64 0 0 1-15.5-13.84c-1.81-15.61-4.09-35.24-6.73-58C468.16 655 417 214.8 417 173.2a98 98 0 1 1 196 0c0 45.85-63.26 591.94-82.46 751.44A15.64 15.64 0 0 1 515 938.41z m0-833.21a68.07 68.07 0 0 0-68 68c0 36 43.12 410.53 68.15 626.23C541.58 573.46 583 208.21 583 173.2a68.07 68.07 0 0 0-68-68z" fill="#602F75" p-id="42418"></path><path d="M420 518.2H299a15 15 0 1 1 0-30h121a83 83 0 0 0 0-166l-86.46 0.25a76.75 76.75 0 1 1 0-153.5H810a15 15 0 0 1 0 30H333.5a46.75 46.75 0 0 0 0 93.5l86.5-0.25a113 113 0 1 1 0 226zM254 518.2h-17a15 15 0 1 1 0-30h17a15 15 0 0 1 0 30zM191 518.2h-21a15 15 0 1 1 0-30h21a15 15 0 0 1 0 30z" fill="#602F75" p-id="42419"></path></svg>