<?xml version="1.0" standalone="no"?><!DOCTYPE svg PUBLIC "-//W3C//DTD SVG 1.1//EN" "http://www.w3.org/Graphics/SVG/1.1/DTD/svg11.dtd"><svg t="1657380766496" class="icon" viewBox="0 0 1024 1024" version="1.1" xmlns="http://www.w3.org/2000/svg" p-id="24667" xmlns:xlink="http://www.w3.org/1999/xlink" width="128" height="128"><defs><style type="text/css">@font-face { font-family: feedback-iconfont; src: url("//at.alicdn.com/t/font_1031158_u69w8yhxdu.woff2?t=1630033759944") format("woff2"), url("//at.alicdn.com/t/font_1031158_u69w8yhxdu.woff?t=1630033759944") format("woff"), url("//at.alicdn.com/t/font_1031158_u69w8yhxdu.ttf?t=1630033759944") format("truetype"); }
</style></defs><path d="M874 60c-82.8 0-150 67.204-150 150 0 53.4 31.198 133.862 75 176.4h150c43.62-42.36 75-122.82 75-176.4 0-82.796-67.204-150-150-150" fill="#47568C" p-id="24668"></path><path d="M1024 210c0-82.796-67.204-150-150-150v326.4h75c43.62-42.36 75-122.82 75-176.4" fill="#29376D" p-id="24669"></path><path d="M332 752h-30v152h60v-152z" fill="#47568C" p-id="24670"></path><path d="M332 752h30v152h-30z" fill="#29376D" p-id="24671"></path><path d="M844 450v332c0 99.244-80.76 182-180 182-99.244 0-182-82.756-182-182v-150h-60v150c0 132.364 109.636 242 242 242 90.96 0 169.318-51.42 210-126.236V450z" fill="#47568C" p-id="24672"></path><path d="M904 450h-30v447.764c18.538-34.02 30-74.422 30-115.764zM542 120c-66.182 0-120 53.822-120 120h60c0-33.058 26.938-60 60-60 33.058 0 62 26.942 62 60v302c0 33.062-28.942 60-62 60-33.062 0-60-26.938-60-60h-60c0 66.182 53.818 120 120 120 66.178 0 122-53.818 122-120V240c0-66.178-55.822-120-122-120" fill="#29376D" p-id="24673"></path><path d="M122 602c-33.062 0-62-26.938-62-60V240c0-33.058 28.938-60 62-60 33.058 0 60 26.942 60 60h60c0-66.178-53.822-120-120-120-66.182 0-122 53.822-122 120v302c0 66.182 55.818 120 122 120 66.178 0 120-53.818 120-120H182c0 33.062-26.942 60-60 60" fill="#47568C" p-id="24674"></path><path d="M874 300c-49.622 0-90 40.382-90 90 0 49.622 40.378 90 90 90 49.618 0 90-40.378 90-90 0-49.618-40.382-90-90-90" fill="#7ED8F6" p-id="24675"></path><path d="M964 390c0-49.618-40.382-90-90-90v180c49.618 0 90-40.378 90-90" fill="#6AA9FF" p-id="24676"></path><path d="M874 360c-16.56 0-30 13.444-30 30 0 16.56 13.44 30 30 30 16.556 0 30-13.44 30-30 0-16.556-13.444-30-30-30" fill="#6AA9FF" p-id="24677"></path><path d="M904 390c0-16.556-13.444-30-30-30v60c16.556 0 30-13.44 30-30" fill="#4895FF" p-id="24678"></path><path d="M874 120c-50.522 0-90 41.342-90 90 0 14.404 3.6 33.002 10.8 53.4 23.698-15 51.478-22.5 79.2-22.5 27.718 0 55.5 7.5 79.196 22.5 7.2-20.398 10.804-38.998 10.804-53.4 0-48.48-39.36-90-90-90" fill="#F0F7FF" p-id="24679"></path><path d="M964 210c0-48.48-39.36-90-90-90v120.9c27.718 0 55.5 7.5 79.196 22.5 7.2-20.398 10.804-38.996 10.804-53.4" fill="#DFE7F4" p-id="24680"></path><path d="M482 150c0-82.68-67.32-150-150-150-82.684 0-150 67.32-150 150v60l60 32.702L182 270v240l60 34.044L182 572v60c0 82.684 67.316 150 150 150 82.68 0 150-67.316 150-150v-60l-60-30.776L482 510V270l-60-26.338L482 210z" fill="#FABE2C" p-id="24681"></path><path d="M482 632v-60l-60-30.776L482 510V270l-60-26.338L482 210V150c0-82.68-67.32-150-150-150v782c82.68 0 150-67.316 150-150" fill="#FF9100" p-id="24682"></path><path d="M182 510v62h300v-62h-150zM332 210H182v60h300v-60z" fill="#61729B" p-id="24683"></path><path d="M332 210h150v60h-150zM332 510h150v62h-150z" fill="#47568C" p-id="24684"></path></svg>