<?xml version="1.0" standalone="no"?><!DOCTYPE svg PUBLIC "-//W3C//DTD SVG 1.1//EN" "http://www.w3.org/Graphics/SVG/1.1/DTD/svg11.dtd"><svg t="1657380597573" class="icon" viewBox="0 0 1024 1024" version="1.1" xmlns="http://www.w3.org/2000/svg" p-id="21816" xmlns:xlink="http://www.w3.org/1999/xlink" width="128" height="128"><defs><style type="text/css">@font-face { font-family: feedback-iconfont; src: url("//at.alicdn.com/t/font_1031158_u69w8yhxdu.woff2?t=1630033759944") format("woff2"), url("//at.alicdn.com/t/font_1031158_u69w8yhxdu.woff?t=1630033759944") format("woff"), url("//at.alicdn.com/t/font_1031158_u69w8yhxdu.ttf?t=1630033759944") format("truetype"); }
</style></defs><path d="M695.45984 276.48a10.24 10.24 0 0 1-10.0864-8.54016 51.2 51.2 0 0 0-100.97664 0 10.24 10.24 0 0 1-20.1728-3.39968 71.68 71.68 0 0 1 141.38368 0A10.24 10.24 0 0 1 695.45984 276.48z" fill="#CA6867" p-id="21817"></path><path d="M266.24 665.6a10.24 10.24 0 0 1-10.24-10.24v-61.44a10.24 10.24 0 0 1 20.48 0v61.44a10.24 10.24 0 0 1-10.24 10.24z" fill="#CA6867" p-id="21818"></path><path d="M491.52 839.68c-62.17728-0.07168-112.56832-50.46272-112.64-112.64V419.84a51.2 51.2 0 1 0-102.4 0v51.2a10.24 10.24 0 0 1-20.48 0v-51.2a71.68 71.68 0 1 1 143.36 0v307.2a92.16 92.16 0 0 0 184.32 0V614.4a10.24 10.24 0 1 1 20.48 0v112.64c-0.07168 62.17728-50.46272 112.56832-112.64 112.64z m194.56 0a10.24 10.24 0 0 1-10.24-10.24V614.16448a10.24 10.24 0 0 1 20.48 0V829.44a10.24 10.24 0 0 1-10.24 10.24z" fill="#CA6867" p-id="21819"></path><path d="M235.52 471.04m20.48 0l20.48 0q20.48 0 20.48 20.48l0 81.92q0 20.48-20.48 20.48l-20.48 0q-20.48 0-20.48-20.48l0-81.92q0-20.48 20.48-20.48Z" fill="#CA6867" p-id="21820"></path><path d="M798.72 317.44a51.3536 51.3536 0 0 0-51.2-51.2H522.24a51.3536 51.3536 0 0 0-51.2 51.2v30.72h327.68v-30.72z" fill="#CA6867" p-id="21821"></path><path d="M471.04 563.2a51.3536 51.3536 0 0 0 51.2 51.2h225.28a51.3536 51.3536 0 0 0 51.2-51.2v-30.72H471.04v30.72z" fill="#CA6867" p-id="21822"></path><path d="M471.04 348.16h327.68v184.32H471.04z" fill="#CA6867" p-id="21823"></path><path d="M634.88 266.24H522.24a51.3536 51.3536 0 0 0-51.2 51.2v245.76a51.3536 51.3536 0 0 0 51.2 51.2h112.64V266.24z" fill="#CA6867" opacity=".16" p-id="21824"></path><path d="M727.04 450.56h-61.44a10.24 10.24 0 0 1 0-20.48h61.44a10.24 10.24 0 0 1 0 20.48z m-122.88-20.48h-20.48v-20.48a10.24 10.24 0 0 0-20.48 0v20.48h-20.48a10.24 10.24 0 0 0 0 20.48h20.48v20.48a10.24 10.24 0 0 0 20.48 0v-20.48h20.48a10.24 10.24 0 0 0 0-20.48z" fill="#CA6867" p-id="21825"></path><path d="M266.24 471.04H256a20.54144 20.54144 0 0 0-20.48 20.48v81.92a20.54144 20.54144 0 0 0 20.48 20.48h10.24V471.04z" fill="#CA6867" opacity=".16" p-id="21826"></path></svg>