<svg width="699" height="218" xmlns="http://www.w3.org/2000/svg" xmlns:xlink="http://www.w3.org/1999/xlink" overflow="hidden"><defs><clipPath id="clip0"><rect x="287" y="25" width="699" height="218"/></clipPath></defs><g clip-path="url(#clip0)" transform="translate(-287 -25)"><path d="M841.5 139C841.5 121.603 855.603 107.5 873 107.5L949 107.5C966.397 107.5 980.5 121.603 980.5 139L980.5 139C980.5 156.397 966.397 170.5 949 170.5L873 170.5C855.603 170.5 841.5 156.397 841.5 139Z" stroke="#FFFFFF" stroke-linejoin="round" stroke-miterlimit="10" fill="#2BAA5D" fill-rule="evenodd"/><path d="M289.5 209C289.5 190.499 304.499 175.5 323 175.5L404 175.5C422.502 175.5 437.5 190.499 437.5 209L437.5 209C437.5 227.502 422.502 242.5 404 242.5L323 242.5C304.499 242.5 289.5 227.502 289.5 209Z" stroke="#FFFFFF" stroke-linejoin="round" stroke-miterlimit="10" fill="#2BAA5D" fill-rule="evenodd"/><path d="M299.5 58.0001C299.5 40.6031 313.603 26.5001 331 26.5001L408 26.5001C425.397 26.5001 439.5 40.6031 439.5 58.0001L439.5 58.0001C439.5 75.3971 425.397 89.5002 408 89.5002L331 89.5001C313.603 89.5001 299.5 75.397 299.5 58Z" stroke="#FFFFFF" stroke-linejoin="round" stroke-miterlimit="10" fill="#2BAA5D" fill-rule="evenodd"/><path d="M437 59 608.059 60.5455" stroke="#2BAA5D" stroke-width="2" stroke-linejoin="round" stroke-miterlimit="10" fill="none" fill-rule="evenodd"/><path d="M0 0 186.397 0.859003" stroke="#2BAA5D" stroke-width="2" stroke-linejoin="round" stroke-miterlimit="10" fill="none" fill-rule="evenodd" transform="matrix(-1 0 0 1 852.397 143)"/><text font-family="Microsoft YaHei,Microsoft YaHei_MSFontService,sans-serif" font-weight="700" font-size="16" transform="translate(326.95 61)">信息模糊<tspan font-size="16" x="558.03" y="85">隐私泄露</tspan><tspan font-weight="400" font-size="15" x="-29.1168" y="66">【</tspan><tspan font-weight="400" font-size="15" x="-12.0168" y="66">前期平台为了充分利用居民资源开放联系方</tspan><tspan font-weight="400" font-size="15" x="-29.1168" y="93">式</tspan><tspan font-weight="400" font-size="15" x="-12.6768" y="93">，</tspan><tspan font-weight="400" font-size="15" x="3.76324" y="93">出现部分骚扰情况</tspan><tspan font-weight="400" font-size="15" x="135.283" y="93">】</tspan></text><path d="M413.801 46.5028C411.996 46.5028 410.502 48.6751 410.502 51.2999L410.502 52.703C410.502 55.3737 411.996 57.5001 413.801 57.5001L418.5 57.5001 418.5 46.5028Z" stroke="#FFFFFF" stroke-linejoin="round" stroke-miterlimit="10" fill="#70AD47" fill-rule="evenodd"/><path d="M419.502 46.5028 419.502 57.5001 424.187 57.5001C426.031 57.5001 427.498 55.3737 427.498 52.703L427.498 51.2999C427.498 48.6751 426.031 46.5028 424.187 46.5028Z" stroke="#FFFFFF" stroke-linejoin="round" stroke-miterlimit="10" fill-rule="evenodd"/><path d="M857.801 137.503C855.996 137.503 854.502 139.675 854.502 142.3L854.502 143.703C854.502 146.374 855.996 148.5 857.801 148.5L862.5 148.5 862.5 137.503Z" stroke="#FFFFFF" stroke-linejoin="round" stroke-miterlimit="10" fill="#5B9BD5" fill-rule="evenodd"/><path d="M863.502 137.503 863.502 148.5 867.601 148.5C869.214 148.5 870.498 146.374 870.498 143.703L870.498 142.3C870.498 139.675 869.214 137.503 867.601 137.503Z" stroke="#FFFFFF" stroke-linejoin="round" stroke-miterlimit="10" fill="#ED7D31" fill-rule="evenodd"/><path d="M601 212.5C601 210.015 603.015 208 605.5 208 607.985 208 610 210.015 610 212.5 610 214.985 607.985 217 605.5 217 603.015 217 601 214.985 601 212.5Z" stroke="#2BAA5D" stroke-width="2" stroke-linejoin="round" stroke-miterlimit="10" fill="none" fill-rule="evenodd"/><path d="M440 211 599.576 212.451" stroke="#2BAA5D" stroke-width="2" stroke-linejoin="round" stroke-miterlimit="10" fill="none" fill-rule="evenodd"/><text font-family="Microsoft YaHei,Microsoft YaHei_MSFontService,sans-serif" font-weight="700" font-size="16" transform="translate(315.557 216)">垃圾信息<tspan font-weight="400" font-size="15" x="319.81" y="-5">【</tspan><tspan font-weight="400" font-size="15" x="336.91" y="-5">有部分人发布不雅信息并标注为</tspan><tspan font-weight="400" font-size="15" x="576.31" y="-5">“</tspan><tspan font-weight="400" font-size="15" x="593.41" y="-5">紧急</tspan><tspan font-weight="400" font-size="15" x="627.61" y="-5">”</tspan><tspan font-weight="400" font-size="15" x="644.703" y="-5">、</tspan><tspan font-weight="400" font-size="15" x="319.81" y="11">“</tspan><tspan font-weight="400" font-size="15" x="336.25" y="11">极紧急</tspan><tspan font-weight="400" font-size="15" x="385.57" y="11">”</tspan><tspan font-weight="400" font-size="15" x="402.01" y="11">，</tspan><tspan font-weight="400" font-size="15" x="418.45" y="11">占用信息资源</tspan><tspan font-weight="400" font-size="15" x="517.09" y="11">】</tspan></text><path d="M407.213 206.503C405.183 206.503 403.502 208.477 403.502 210.864L403.502 212.139C403.502 214.567 405.183 216.5 407.213 216.5L412.5 216.5 412.5 206.503Z" stroke="#FFFFFF" stroke-linejoin="round" stroke-miterlimit="10" fill="#ED7D31" fill-rule="evenodd"/><path d="M411.502 206.503 411.502 216.5 416.187 216.5C418.031 216.5 419.498 214.567 419.498 212.139L419.498 210.864C419.498 208.477 418.031 206.503 416.187 206.503Z" stroke="#FFFFFF" stroke-linejoin="round" stroke-miterlimit="10" fill="#70AD47" fill-rule="evenodd"/><path d="M608 60.5C608 58.0147 610.015 56 612.5 56 614.985 56 617 58.0147 617 60.5 617 62.9853 614.985 65 612.5 65 610.015 65 608 62.9853 608 60.5Z" stroke="#2BAA5D" stroke-width="2" stroke-linejoin="round" stroke-miterlimit="10" fill="none" fill-rule="evenodd"/><path d="M657 143.5C657 141.015 659.015 139 661.5 139 663.985 139 666 141.015 666 143.5 666 145.985 663.985 148 661.5 148 659.015 148 657 145.985 657 143.5Z" stroke="#2BAA5D" stroke-width="2" stroke-linejoin="round" stroke-miterlimit="10" fill="none" fill-rule="evenodd"/></g></svg>