<?xml version="1.0" standalone="no"?><!DOCTYPE svg PUBLIC "-//W3C//DTD SVG 1.1//EN" "http://www.w3.org/Graphics/SVG/1.1/DTD/svg11.dtd"><svg t="1657380916081" class="icon" viewBox="0 0 1024 1024" version="1.1" xmlns="http://www.w3.org/2000/svg" p-id="27232" xmlns:xlink="http://www.w3.org/1999/xlink" width="128" height="128"><defs><style type="text/css">@font-face { font-family: feedback-iconfont; src: url("//at.alicdn.com/t/font_1031158_u69w8yhxdu.woff2?t=1630033759944") format("woff2"), url("//at.alicdn.com/t/font_1031158_u69w8yhxdu.woff?t=1630033759944") format("woff"), url("//at.alicdn.com/t/font_1031158_u69w8yhxdu.ttf?t=1630033759944") format("truetype"); }
</style></defs><path d="M419.9 823.2L167.4 656.7l276.2-418.9c7.2-10.9 18.2-18.3 31-20.9 12.8-2.6 25.8-0.1 36.7 7l171 112.7c10.9 7.2 18.3 18.2 20.9 31 2.6 12.8 0.1 25.8-7 36.7L419.9 823.2zM232.8 643.3l173.6 114.5 250.2-379.4c0.2-0.3 0.3-0.7 0.2-1.2-0.1-0.5-0.3-0.8-0.7-1l-171-112.7c-0.7-0.5-1.8-0.2-2.2 0.5L232.8 643.3z" p-id="27233" fill="#CA6867"></path><path d="M625.3 468.7l-259.9-69.5 97.8-148.4c7.6-11.6 23.4-14.8 34.9-7.2l171 112.7c11.6 7.6 14.8 23.4 7.2 34.9l-51 77.5zM632 312.7l-78.6-51.9c-4.8-3.1-6.1-9.6-2.9-14.4l30-45.5c3.1-4.8 9.6-6.1 14.4-2.9l78.6 51.9c4.8 3.1 6.1 9.6 2.9 14.4l-30 45.5c-3.2 4.7-9.7 6-14.4 2.9z" p-id="27234" fill="#CA6867"></path><path d="M638.8 247.2l-25.3-14.9L713 96.8l25.4 14.8zM132.419 592.7l358.757 236.55-27.525 41.746-358.757-236.55zM128.322 727.505l241.62 159.315-27.525 41.745-241.62-159.315z" p-id="27235" fill="#CA6867"></path><path d="M319.445 745.927l-65.895 99.937-41.745-27.525 65.895-99.937zM250.368 535.801l104.196 68.703-27.525 41.745-104.196-68.703zM310.77 444.348l104.196 68.702-27.525 41.745-104.196-68.702zM905.1 477.5h0.3l-58.7-98.2c-4.6-4.6-12.5-4.2-17.6 0.9L766.9 482c-10.9 14.8-17.4 33.1-17.3 52.8 0.2 48.7 39.8 88 88.6 87.8 48.7-0.2 88-39.8 87.8-88.6-0.1-21.4-7.9-41.2-20.9-56.5z" p-id="27236" fill="#CA6867"></path></svg>