<svg width="667" height="223" xmlns="http://www.w3.org/2000/svg" xmlns:xlink="http://www.w3.org/1999/xlink" overflow="hidden"><defs><clipPath id="clip0"><rect x="322" y="360" width="667" height="223"/></clipPath></defs><g clip-path="url(#clip0)" transform="translate(-322 -360)"><path d="M679.631 430.516 728.951 430.516 728.951 449.516 679.631 449.516Z" fill="#2BAA5D" fill-rule="evenodd"/><path d="M728.951 430.516 750.497 430.516 750.497 449.516 728.951 449.516Z" fill="#2BAA5D" fill-rule="evenodd"/><path d="M750.497 430.516 849.137 430.516 849.137 449.516 750.497 449.516Z" fill="#2BAA5D" fill-rule="evenodd"/><path d="M849.137 430.516 892.231 430.516 892.231 449.516 849.137 449.516Z" fill="#2BAA5D" fill-rule="evenodd"/><path d="M892.231 430.516 974.431 430.516 974.431 449.516 892.231 449.516Z" fill="#2BAA5D" fill-rule="evenodd"/><path d="M679.631 457.516 701.177 457.516 701.177 476.516 679.631 476.516Z" fill="#2BAA5D" fill-rule="evenodd"/><path d="M701.177 457.516 832.697 457.516 832.697 476.516 701.177 476.516Z" fill="#2BAA5D" fill-rule="evenodd"/><path d="M832.697 457.516 875.791 457.516 875.791 476.516 832.697 476.516Z" fill="#2BAA5D" fill-rule="evenodd"/><path d="M875.791 457.516 925.111 457.516 925.111 476.516 875.791 476.516Z" fill="#2BAA5D" fill-rule="evenodd"/><path d="M679.631 483.516 711.951 483.516 711.951 502.516 679.631 502.516Z" fill="#2BAA5D" fill-rule="evenodd"/><path d="M711.951 483.516 892.791 483.516 892.791 502.516 711.951 502.516Z" fill="#2BAA5D" fill-rule="evenodd"/><path d="M679.631 509.516 761.831 509.516 761.831 528.516 679.631 528.516Z" fill="#2BAA5D" fill-rule="evenodd"/><path d="M761.831 509.516 859.897 509.516 859.897 528.516 761.831 528.516Z" fill="#2BAA5D" fill-rule="evenodd"/><path d="M859.897 509.516 876.337 509.516 876.337 528.516 859.897 528.516Z" fill="#2BAA5D" fill-rule="evenodd"/><text font-family="Wingdings,Wingdings_MSFontService,sans-serif" font-weight="400" font-size="15" transform="translate(639.631 447)"><tspan font-family="Microsoft YaHei,Microsoft YaHei_MSFontService,sans-serif" font-weight="700" font-size="15" x="40" y="0">服务了</tspan><tspan font-family="Microsoft YaHei,Microsoft YaHei_MSFontService,sans-serif" font-weight="700" font-size="15" x="89.32" y="0">23</tspan><tspan font-family="Microsoft YaHei,Microsoft YaHei_MSFontService,sans-serif" font-weight="700" font-size="15" x="110.867" y="0">个上海小区的</tspan><tspan font-family="Microsoft YaHei,Microsoft YaHei_MSFontService,sans-serif" font-weight="700" font-size="15" x="209.507" y="0">2123</tspan><tspan font-family="Microsoft YaHei,Microsoft YaHei_MSFontService,sans-serif" font-weight="700" font-size="15" x="252.6" y="0">位独居老人</tspan><tspan font-size="15" x="0" y="27"></tspan><tspan font-family="Microsoft YaHei,Microsoft YaHei_MSFontService,sans-serif" font-weight="700" font-size="15" x="40" y="27">17</tspan><tspan font-family="Microsoft YaHei,Microsoft YaHei_MSFontService,sans-serif" font-weight="700" font-size="15" x="61.5466" y="27">家养老院等机构的</tspan><tspan font-family="Microsoft YaHei,Microsoft YaHei_MSFontService,sans-serif" font-weight="700" font-size="15" x="193.067" y="27">2236</tspan><tspan font-family="Microsoft YaHei,Microsoft YaHei_MSFontService,sans-serif" font-weight="700" font-size="15" x="236.16" y="27">位老人</tspan><tspan font-size="15" x="0" y="53"></tspan><tspan font-family="Microsoft YaHei,Microsoft YaHei_MSFontService,sans-serif" font-weight="700" font-size="15" x="40" y="53">240</tspan><tspan font-family="Microsoft YaHei,Microsoft YaHei_MSFontService,sans-serif" font-weight="700" font-size="15" x="72.32" y="53">位复旦儿科方舱的婴幼儿</tspan><tspan font-size="15" x="0" y="79"></tspan><tspan font-family="Microsoft YaHei,Microsoft YaHei_MSFontService,sans-serif" font-weight="700" font-size="15" x="40" y="79">物资总额达</tspan><tspan font-family="Microsoft YaHei,Microsoft YaHei_MSFontService,sans-serif" font-weight="700" font-size="15" x="122.2" y="79">438,532.30</tspan><tspan font-family="Microsoft YaHei,Microsoft YaHei_MSFontService,sans-serif" font-weight="700" font-size="15" x="220.267" y="79">元</tspan></text><path d="M378 471.5C378 410.473 427.473 361 488.5 361 549.527 361 599 410.473 599 471.5 599 532.527 549.527 582 488.5 582 427.473 582 378 532.527 378 471.5Z" fill="#134D2A" fill-rule="evenodd"/><text fill="#FFFFFF" font-family="Microsoft YaHei,Microsoft YaHei_MSFontService,sans-serif" font-weight="700" font-size="11" transform="translate(464.569 392)">帮扶对象</text><path d="M405 499C405 453.16 442.384 416 488.5 416 534.616 416 572 453.16 572 499 572 544.84 534.616 582 488.5 582 442.384 582 405 544.84 405 499Z" fill="#1A683A" fill-rule="evenodd"/><text fill="#FFFFFF" font-family="Microsoft YaHei,Microsoft YaHei_MSFontService,sans-serif" font-weight="700" font-size="11" transform="translate(459.379 446)">N<tspan font-size="11" x="10.38" y="0">名志愿者</tspan></text><path d="M433 527C433 496.624 457.848 472 488.5 472 519.152 472 544 496.624 544 527 544 557.376 519.152 582 488.5 582 457.848 582 433 557.376 433 527Z" fill="#2BAA5D" fill-rule="evenodd"/><text fill="#FFFFFF" font-family="Microsoft YaHei,Microsoft YaHei_MSFontService,sans-serif" font-weight="700" font-size="11" transform="translate(471.662 519)">4<tspan font-size="11" x="7.91333" y="0">-</tspan><tspan font-size="11" x="13.9" y="0">5</tspan><tspan font-size="11" x="21.8133" y="0">人</tspan><tspan font-size="11" x="-7.09335" y="23">核心团队</tspan></text><path d="M3-6.1282e-06 3.00007 36.3953-2.99993 36.3953-3 6.1282e-06ZM9.00007 33.3953 0.000104987 51.3953-8.99993 33.3953Z" fill="#FFFFFF" transform="matrix(1 0 0 -1 488 502.395)"/><path d="M3-8.40077e-06 3.00006 22.4919-2.99994 22.4919-3 8.40077e-06ZM9.00005 19.4918 0.000104987 37.4919-8.99994 19.4919Z" fill="#FFFFFF" transform="matrix(1 0 0 -1 488 433.492)"/></g></svg>