<?xml version="1.0" standalone="no"?><!DOCTYPE svg PUBLIC "-//W3C//DTD SVG 1.1//EN" "http://www.w3.org/Graphics/SVG/1.1/DTD/svg11.dtd"><svg t="1657380985320" class="icon" viewBox="0 0 1024 1024" version="1.1" xmlns="http://www.w3.org/2000/svg" p-id="28217" xmlns:xlink="http://www.w3.org/1999/xlink" width="128" height="128"><defs><style type="text/css">@font-face { font-family: feedback-iconfont; src: url("//at.alicdn.com/t/font_1031158_u69w8yhxdu.woff2?t=1630033759944") format("woff2"), url("//at.alicdn.com/t/font_1031158_u69w8yhxdu.woff?t=1630033759944") format("woff"), url("//at.alicdn.com/t/font_1031158_u69w8yhxdu.ttf?t=1630033759944") format("truetype"); }
</style></defs><path d="M85.333333 324.266667m34.133334 0l785.066666 0q34.133333 0 34.133334 34.133333l0 546.133333q0 34.133333-34.133334 34.133334l-785.066666 0q-34.133333 0-34.133334-34.133334l0-546.133333q0-34.133333 34.133334-34.133333Z" fill="#EDA1FF" p-id="28218"></path><path d="M102.4 327.68l127.317333-132.608a68.266667 68.266667 0 0 1 49.322667-20.992h466.090667a68.266667 68.266667 0 0 1 49.322666 20.992L921.6 327.68" fill="#D264ED" p-id="28219"></path><path d="M904.533333 853.333333H119.466667a34.133333 34.133333 0 0 1-34.133334-34.133333v85.333333a34.133333 34.133333 0 0 0 34.133334 34.133334h785.066666a34.133333 34.133333 0 0 0 34.133334-34.133334v-85.333333a34.133333 34.133333 0 0 1-34.133334 34.133333z" fill="#E1E8EF" p-id="28220"></path><path d="M93.866667 785.066667s183.466667 30.037333 339.285333-6.314667c172.885333-40.448 307.2-189.781333 501.76-176.981333v324.266666H93.866667z" fill="#FFFFFF" p-id="28221"></path><path d="M93.866667 857.6h841.045333v68.266667H93.866667z" fill="#E1E8EF" p-id="28222"></path><path d="M941.056 311.466667s0-1.024-1.024-1.536l-127.317333-132.608a94.378667 94.378667 0 0 0-68.266667-28.842667H278.869333a94.378667 94.378667 0 0 0-68.266666 28.842667l-126.634667 132.608s0 1.024-1.024 1.536A59.392 59.392 0 0 0 59.733333 358.4v546.133333A59.733333 59.733333 0 0 0 119.466667 964.266667h785.066666a59.733333 59.733333 0 0 0 59.733334-59.733334V358.4a59.392 59.392 0 0 0-23.210667-46.933333zM110.933333 358.4a8.533333 8.533333 0 0 1 8.533334-8.533333h785.066666a8.533333 8.533333 0 0 1 8.533334 8.533333v225.621333c-107.52 2.389333-200.533333 50.346667-290.133334 96.938667-65.194667 34.133333-126.805333 65.536-193.194666 81.237333-125.952 29.525333-273.066667 14.165333-318.293334 8.192z m136.533334-145.578667a42.837333 42.837333 0 0 1 30.72-13.141333h466.944a42.837333 42.837333 0 0 1 30.72 13.141333l82.432 85.333334H165.717333zM904.533333 913.066667H119.466667a8.533333 8.533333 0 0 1-8.533334-8.533334v-99.84a1163.776 1163.776 0 0 0 144.896 9.216A807.936 807.936 0 0 0 436.906667 795.306667c70.485333-17.066667 136.533333-51.2 201.216-84.138667 86.186667-44.544 175.274667-90.624 274.944-93.013333V904.533333a8.533333 8.533333 0 0 1-8.533334 8.533334z" fill="#3E4454" p-id="28223"></path><path d="M259.072 493.568h42.666667a17.066667 17.066667 0 0 0 0-34.133333h-42.666667v-42.666667a17.066667 17.066667 0 0 0-34.133333 0v42.666667h-42.666667a17.066667 17.066667 0 0 0 0 34.133333h42.666667v42.666667a17.066667 17.066667 0 1 0 34.133333 0z" fill="#3E4454" p-id="28224"></path></svg>