<svg width="956" height="194" xmlns="http://www.w3.org/2000/svg" xmlns:xlink="http://www.w3.org/1999/xlink" overflow="hidden"><defs><clipPath id="clip0"><rect x="173" y="195" width="956" height="194"/></clipPath></defs><g clip-path="url(#clip0)" transform="translate(-173 -195)"><text font-family="Microsoft YaHei,Microsoft YaHei_MSFontService,sans-serif" font-weight="400" font-size="15" transform="translate(716.357 323)">2022.3<tspan font-size="15" x="0" y="27">泉州抗疫救</tspan><tspan font-size="15" x="0" y="43">助文档</tspan><tspan font-size="15" x="-229.953" y="-9">2021.7</tspan><tspan font-size="15" x="-229.953" y="18">山西暴雨救</tspan><tspan font-size="15" x="-229.953" y="34">助文档</tspan><tspan font-size="15" x="142.406" y="-5">2022.4</tspan><tspan font-size="15" x="142.406" y="21">上海疫情求</tspan><tspan font-size="15" x="142.406" y="37">助文档</tspan>&amp;<tspan font-size="15" x="199.24" y="37">线</tspan><tspan font-size="15" x="142.406" y="53">上求助平台</tspan></text><path d="M265.157 195C263.747 195 262.619 195.643 262.337 196.543L248.612 246.372 234.699 210.817C234.323 209.982 233.195 209.403 231.973 209.403 230.657 209.403 229.529 209.982 229.247 210.817L217.875 238.721 175.763 238.721C172.003 238.721 172.003 242.579 175.763 242.579L219.943 242.579C221.259 242.579 222.386 242 222.668 241.164L231.879 218.661 246.356 255.567C246.719 256.532 247.897 257 249.082 257 250.344 257 251.609 256.467 251.901 255.439L265.063 207.732 277.187 255.374C277.469 256.274 278.503 256.917 279.724 256.982L280.006 256.982C281.228 256.982 282.262 256.467 282.638 255.696L295.047 232.228 355.111 232.228 367.427 255.696C367.803 256.467 368.93 256.982 370.058 256.982L370.34 256.982C371.562 256.917 372.69 256.274 372.878 255.374L385.096 207.732 398.163 255.439C398.455 256.467 399.721 257 400.983 257 402.168 257 403.346 256.532 403.708 255.567L418.186 218.661 427.396 241.164C427.772 242 428.9 242.579 430.122 242.579L476.088 242.579C477.403 242.579 478.531 242 478.813 241.164L488.024 218.661 502.501 255.567C502.863 256.532 504.042 257 505.227 257 506.489 257 507.757 256.467 508.046 255.439L521.207 207.732 533.332 255.374C533.614 256.274 534.647 256.917 535.869 256.982L536.151 256.982C537.373 256.982 538.407 256.467 538.783 255.696L551.192 232.228 611.256 232.228 623.571 255.696C623.947 256.467 625.075 256.982 626.203 256.982L626.485 256.982C627.707 256.917 628.835 256.274 629.023 255.374L641.244 207.732 654.402 255.439C654.644 256.467 655.889 257 657.141 257 658.312 257 659.491 256.532 659.853 255.567L674.33 218.661 683.541 241.164C683.917 242 685.045 242.579 686.267 242.579L733.454 242.579C734.676 242.579 735.804 242 736.18 241.164L745.394 218.661 759.868 255.567C760.233 256.532 761.412 257 762.583 257 763.835 257 765.077 256.467 765.319 255.439L778.48 207.732 790.698 255.374C790.886 256.274 791.923 256.917 793.239 256.982L793.427 256.982C794.649 256.982 795.683 256.467 796.153 255.696L808.465 232.228 868.532 232.228 880.938 255.696C881.314 256.467 882.348 256.982 883.57 256.982L883.758 256.982C885.073 256.917 886.107 256.274 886.295 255.374L898.517 207.732 911.675 255.439C911.967 256.467 913.209 257 914.461 257 915.632 257 916.814 256.532 917.22 255.567L931.697 218.661 940.908 241.164C941.19 242 942.317 242.579 943.637 242.579L990.727 242.579C992.043 242.579 993.174 242 993.456 241.164L1002.67 218.661 1017.14 255.567C1017.51 256.532 1018.68 257 1019.87 257 1021.13 257 1022.4 256.467 1022.69 255.439L1035.85 207.732 1047.97 255.374C1048.26 256.274 1049.29 256.917 1050.51 256.982L1050.79 256.982C1052.02 256.982 1053.05 256.467 1053.43 255.696L1065.83 232.228 1125.24 232.228C1129 232.228 1129 228.371 1125.24 228.371L1063.76 228.371C1062.64 228.371 1061.51 228.885 1061.13 229.656L1051.73 247.593 1038.67 196.607C1038.48 195.707 1037.26 195 1035.94 195 1034.53 195 1033.4 195.643 1033.12 196.543L1019.4 246.372 1005.49 210.817C1005.11 209.982 1003.98 209.403 1002.76 209.403 1001.44 209.403 1000.32 209.982 1000.03 210.817L988.565 238.721 945.704 238.721 934.329 210.817C933.953 209.982 932.919 209.403 931.603 209.403 930.287 209.403 929.253 209.982 928.877 210.817L914.964 246.372 901.242 196.543C900.96 195.643 899.832 195 898.423 195 897.013 195 895.885 195.707 895.603 196.607L882.63 247.593 873.231 229.656C872.761 228.885 871.727 228.371 870.506 228.371L806.491 228.371C805.269 228.371 804.236 228.885 803.86 229.656L794.461 247.593 781.394 196.607C781.112 195.707 779.984 195 778.574 195 777.258 195 776.036 195.643 775.849 196.543L762.123 246.372 748.119 210.817C747.837 209.982 746.71 209.403 745.394 209.403 744.172 209.403 743.044 209.982 742.668 210.817L731.292 238.721 688.428 238.721 677.056 210.817C676.68 209.982 675.552 209.403 674.33 209.403L674.236 209.403C673.015 209.403 671.887 209.982 671.605 210.817L657.598 246.372 643.876 196.543C643.594 195.643 642.466 195 641.15 195L641.056 195C639.74 195 638.515 195.707 638.327 196.607L625.263 247.593 615.865 229.656C615.489 228.885 614.357 228.371 613.23 228.371L549.125 228.371C547.997 228.371 546.869 228.885 546.493 229.656L537.091 247.593 524.027 196.607C523.839 195.707 522.617 195 521.301 195 519.892 195 518.764 195.643 518.482 196.543L504.757 246.372 490.847 210.817C490.471 209.982 489.343 209.403 488.118 209.403 486.802 209.403 485.674 209.982 485.392 210.817L473.926 238.721 432.284 238.721 420.911 210.817C420.535 209.982 419.407 209.403 418.186 209.403L418.092 209.403C416.87 209.403 415.742 209.982 415.46 210.817L401.453 246.372 387.731 196.543C387.449 195.643 386.318 195 385.002 195L384.908 195C383.592 195 382.37 195.707 382.182 196.607L369.118 247.593 359.716 229.656C359.34 228.885 358.213 228.371 357.085 228.371L292.98 228.371C291.852 228.371 290.724 228.885 290.348 229.656L280.946 247.593 267.882 196.607C267.694 195.707 266.472 195 265.157 195Z" fill="#2BAA5D" fill-rule="evenodd"/><path d="M386 208 387.529 308.671" stroke="#2BAA5D" stroke-width="2" stroke-linejoin="round" stroke-miterlimit="10" fill="none" fill-rule="evenodd"/><path d="M0 3.5C-8.91193e-16 1.567 1.567 0 3.5 0 5.433 -8.91193e-16 7 1.567 7 3.5 7 5.433 5.433 7 3.5 7 1.567 7-1.33679e-15 5.433 0 3.5Z" stroke="#E4AEAE" stroke-width="2" stroke-linejoin="round" stroke-miterlimit="10" fill="none" fill-rule="evenodd" transform="matrix(-1 0 0 1 390 201)"/><path d="M0 0 0.000104987 86.4448" stroke="#2BAA5D" stroke-width="2" stroke-linejoin="round" stroke-miterlimit="10" fill="none" fill-rule="evenodd" transform="matrix(-1 0 0 1 901 213)"/><path d="M0 3C-7.6388e-16 1.34315 1.34315 0 3 0 4.65685 -7.6388e-16 6 1.34315 6 3 6 4.65685 4.65685 6 3 6 1.34315 6-1.14582e-15 4.65685 0 3Z" stroke="#E4AEAE" stroke-width="2" stroke-linejoin="round" stroke-miterlimit="10" fill="none" fill-rule="evenodd" transform="matrix(-1 0 0 1 750 208)"/><path d="M747 214 747 299.395" stroke="#2BAA5D" stroke-width="2" stroke-linejoin="round" stroke-miterlimit="10" fill="none" fill-rule="evenodd"/><path d="M0 3C-8.91193e-16 1.34315 1.567 0 3.5 0 5.433 -7.6388e-16 7 1.34315 7 3 7 4.65685 5.433 6 3.5 6 1.567 6-1.33679e-15 4.65685 0 3Z" stroke="#E4AEAE" stroke-width="2" stroke-linejoin="round" stroke-miterlimit="10" fill="none" fill-rule="evenodd" transform="matrix(-1 0 0 1 905 198)"/><path d="M521 212 521 288.91" stroke="#2BAA5D" stroke-width="2" stroke-linejoin="round" stroke-miterlimit="10" fill="none" fill-rule="evenodd"/><path d="M0 3.5C-7.6388e-16 1.567 1.34315 0 3 0 4.65685 -8.91193e-16 6 1.567 6 3.5 6 5.433 4.65685 7 3 7 1.34315 7-1.14582e-15 5.433 0 3.5Z" stroke="#E4AEAE" stroke-width="2" stroke-linejoin="round" stroke-miterlimit="10" fill="none" fill-rule="evenodd" transform="matrix(-1 0 0 1 524 204)"/><text font-family="Microsoft YaHei,Microsoft YaHei_MSFontService,sans-serif" font-weight="400" font-size="15" transform="translate(367.463 333)">2021.7<tspan font-size="15" x="0" y="27">河南暴雨</tspan></text></g></svg>