<svg width="99" height="86" xmlns="http://www.w3.org/2000/svg" xmlns:xlink="http://www.w3.org/1999/xlink" overflow="hidden"><defs><clipPath id="clip0"><rect x="42" y="80" width="99" height="86"/></clipPath></defs><g clip-path="url(#clip0)" transform="translate(-42 -80)"><path d="M56 123C56 99.804 75.0279 81 98.5 81 121.972 81 141 99.804 141 123 141 146.196 121.972 165 98.5 165 75.0279 165 56 146.196 56 123Z" fill="#0E381F" fill-rule="evenodd"/><path d="M43 109C43 93.536 55.3122 81 70.5 81 85.6878 81 98 93.536 98 109 98 124.464 85.6878 137 70.5 137 55.3122 137 43 124.464 43 109Z" fill="#2BAA5D" fill-rule="evenodd"/></g></svg>