<svg width="674" height="98" xmlns="http://www.w3.org/2000/svg" xmlns:xlink="http://www.w3.org/1999/xlink" overflow="hidden"><defs><clipPath id="clip0"><rect x="292" y="155" width="674" height="98"/></clipPath></defs><g clip-path="url(#clip0)" transform="translate(-292 -155)"><path d="M325 215C325 211.134 328.134 208 332 208L408 208C411.866 208 415 211.134 415 215L415 243C415 246.866 411.866 250 408 250L332 250C328.134 250 325 246.866 325 243Z" stroke="#2BAA5D" stroke-width="4" stroke-miterlimit="8" fill="none" fill-rule="evenodd"/><path d="M474 216C474 212.134 477.134 209 481 209L553 209C556.866 209 560 212.134 560 216L560 244C560 247.866 556.866 251 553 251L481 251C477.134 251 474 247.866 474 244Z" stroke="#2BAA5D" stroke-width="4" stroke-miterlimit="8" fill="none" fill-rule="evenodd"/><path d="M612 215C612 211.134 615.134 208 619 208L691 208C694.866 208 698 211.134 698 215L698 243C698 246.866 694.866 250 691 250L619 250C615.134 250 612 246.866 612 243Z" stroke="#2BAA5D" stroke-width="4" stroke-miterlimit="8" fill="none" fill-rule="evenodd"/><path d="M749 214C749 210.134 752.134 207 756 207L828 207C831.866 207 835 210.134 835 214L835 242C835 245.866 831.866 249 828 249L756 249C752.134 249 749 245.866 749 242Z" stroke="#2BAA5D" stroke-width="4" stroke-miterlimit="8" fill="none" fill-rule="evenodd"/><text font-family="Microsoft YaHei,Microsoft YaHei_MSFontService,sans-serif" font-weight="700" font-size="15" transform="translate(340.508 235)">域名注册<tspan font-size="15" x="148.393" y="0">版面设计</tspan><tspan font-size="15" x="279.058" y="-2">服务器选择</tspan><tspan font-size="15" x="423.273" y="-2">程序开发</tspan><tspan font-size="15" x="552.076" y="-2">域名备案</tspan></text><path d="M880 214C880 210.134 883.134 207 887 207L956 207C959.866 207 963 210.134 963 214L963 242C963 245.866 959.866 249 956 249L887 249C883.134 249 880 245.866 880 242Z" stroke="#2BAA5D" stroke-width="4" stroke-miterlimit="8" fill="none" fill-rule="evenodd"/><path d="M0.00941911-2.83332 46.4776-2.67884 46.4588 2.9878-0.00941911 2.83332ZM43.6631-8.35489 60.6348 0.201575 43.6066 8.64501Z" fill="#2BAA5D" transform="matrix(1 0 0 -1 413 230.202)"/><path d="M0.0732918-2.83239 36.4972-1.88987 36.3506 3.7749-0.0732918 2.83239ZM33.8114-7.62793 50.5858 1.30898 33.3716 9.36638Z" fill="#2BAA5D" transform="matrix(1 0 0 -1 698 229.309)"/><text font-family="Microsoft YaHei,Microsoft YaHei_MSFontService,sans-serif" font-weight="700" font-size="19" transform="translate(323.7 179)">常规网站上线流程</text><path d="M560.095 223.168 596.042 224.374 595.852 230.038 559.905 228.832ZM593.4 218.616 610.105 227.681 592.83 235.606Z" fill="#2BAA5D"/><path d="M835 225.167 866.016 225.167 866.016 230.833 835 230.833ZM863.183 219.5 880.183 228 863.183 236.5Z" fill="#2BAA5D"/></g></svg>